# xmcd
#
# Track frame offsets:
#	150
#	15513
#	31388
#	45821
#	56981
#	73472
#	88096
#	104107
#	121451
#	145662
#	158384
#	171669
#	187429
#
# Disc length: 2710 seconds
# Revision: 0
# Processed by: cddbd v1.5.2PL0 Copyright (c) Steve Scherf et al.
# Submitted via: dBpowerAMP V12.0
#
DISCID=bf0a940d
DTITLE=Wally Barnick - Wally Barnick and The Trail Boss Troubadors
DYEAR=2019
DGENRE=Americana
TTITLE0=Colorado
TTITLE1=Nailin' Notes
TTITLE2=Through The Eyes Of Children
TTITLE3=Highway 44
TTITLE4=Waiting For A Miracle
TTITLE5=Janie
TTITLE6=Bright Side Of The Blues
TTITLE7=Never Alone
TTITLE8=Horses
TTITLE9=The Desert In Bloom
TTITLE10=Take It When You Leave
TTITLE11=Vicksburg
TTITLE12=House
EXTD=
EXTT0=
EXTT1=
EXTT2=
EXTT3=
EXTT4=
EXTT5=
EXTT6=
EXTT7=
EXTT8=
EXTT9=
EXTT10=
EXTT11=
EXTT12=
PLAYORDER=
